<svg width="24" height="24" viewBox="0 0 24 24" fill="none" xmlns="http://www.w3.org/2000/svg">
<path d="M10.5 15C7.5 15 6 16.5529 6 18C5.25001 18 3.75 18 3 18C3 17.25 4.5 15 9 15C9.43159 15 9.75 15 10.5 15Z" fill="#E4E4E8"/>
<path d="M10.5 12.75C8.24999 12 7.4999 10.5 7.49999 9C7.50008 7.5 8.24999 6 10.4999 5.25001C10.4999 5.25001 9.41377 5.25 8.99999 5.25C7.49999 5.25 5.24986 6.23856 5.24986 9.00001C5.24986 11.7615 7.49999 12.75 8.99999 12.75C9.41377 12.75 10.5 12.75 10.5 12.75Z" fill="#E4E4E8"/>
<path fill-rule="evenodd" clip-rule="evenodd" d="M9 12C10.6569 12 12 10.6569 12 9C12 7.34315 10.6569 6 9 6C7.34315 6 6 7.34315 6 9C6 10.6569 7.34315 12 9 12ZM9 13.5C11.4853 13.5 13.5 11.4853 13.5 9C13.5 6.51472 11.4853 4.5 9 4.5C6.51472 4.5 4.5 6.51472 4.5 9C4.5 11.4853 6.51472 13.5 9 13.5Z" fill="#5F6179"/>
<path fill-rule="evenodd" clip-rule="evenodd" d="M3.26498 18H14.735C14.0111 16.1585 11.7729 15 8.99999 15C6.22705 15 3.98887 16.1585 3.26498 18ZM15 18H14.9996C15.0032 17.9992 15.0035 18 15 18ZM3.00037 18H2.99999C2.99649 18 2.99678 17.9992 3.00037 18ZM1.68495 18.0148C2.48339 14.9721 5.74169 13.5 8.99999 13.5C12.2583 13.5 15.5166 14.9721 16.315 18.0148C16.5253 18.8161 15.8284 19.5 15 19.5H2.99999C2.17157 19.5 1.47469 18.8161 1.68495 18.0148Z" fill="#5F6179"/>
<path fill-rule="evenodd" clip-rule="evenodd" d="M15 6.75C15 6.33579 15.3358 6 15.75 6L21.75 6C22.1642 6 22.5 6.33579 22.5 6.75C22.5 7.16421 22.1642 7.5 21.75 7.5L15.75 7.5C15.3358 7.5 15 7.16421 15 6.75Z" fill="#FF5F72"/>
<path fill-rule="evenodd" clip-rule="evenodd" d="M16.5 9.75C16.5 9.33579 16.8358 9 17.25 9L21.75 9C22.1642 9 22.5 9.33579 22.5 9.75C22.5 10.1642 22.1642 10.5 21.75 10.5L17.25 10.5C16.8358 10.5 16.5 10.1642 16.5 9.75Z" fill="#FF5F72"/>
<path fill-rule="evenodd" clip-rule="evenodd" d="M18 12.75C18 12.3358 18.3358 12 18.75 12L21.75 12C22.1642 12 22.5 12.3358 22.5 12.75C22.5 13.1642 22.1642 13.5 21.75 13.5L18.75 13.5C18.3358 13.5 18 13.1642 18 12.75Z" fill="#FF5F72"/>
</svg>