<svg width="24" height="24" viewBox="0 0 24 24" fill="none" xmlns="http://www.w3.org/2000/svg">
<path fill-rule="evenodd" clip-rule="evenodd" d="M2.99988 6.75C2.99988 6.33579 3.33566 6 3.74988 6H20.2499C20.6641 6 20.9999 6.33579 20.9999 6.75V11.25C20.9999 11.6642 20.6641 12 20.2499 12C19.8357 12 19.4999 11.6642 19.4999 11.25V7.5H4.49988V16.5H14.2499C14.6641 16.5 14.9999 16.8358 14.9999 17.25C14.9999 17.6642 14.6641 18 14.2499 18H3.74988C3.33566 18 2.99988 17.6642 2.99988 17.25V6.75Z" fill="#5F6179"/>
<path d="M12 12.75L3.75 6.75H20.25L12 12.75Z" fill="#E4E4E8"/>
<path fill-rule="evenodd" clip-rule="evenodd" d="M3.03669 6.51807C3.13715 6.20914 3.42508 6 3.74993 6H20.2499C20.5748 6 20.8627 6.20914 20.9632 6.51807C21.0636 6.827 20.9538 7.16548 20.6911 7.35655L12.4411 13.3566C12.1781 13.5478 11.8218 13.5478 11.5588 13.3566L3.3088 7.35655C3.04608 7.16548 2.93623 6.827 3.03669 6.51807ZM6.05632 7.5L11.9999 11.8226L17.9435 7.5H6.05632Z" fill="#5F6179"/>
<path d="M21 15.75C21 16.9926 19.9926 18 18.75 18C17.5074 18 16.5 16.9926 16.5 15.75C16.5 14.5074 17.5074 13.5 18.75 13.5C19.9926 13.5 21 14.5074 21 15.75Z" fill="#FF5F72"/>
</svg>