<svg width="24" height="24" viewBox="0 0 24 24" fill="none" xmlns="http://www.w3.org/2000/svg">
<path d="M6 20.25V10.5L6.75 9.75L8.25 11.25V20.25H6Z" fill="#E4E4E8"/>
<path d="M12 19.5V12V3.75L15 6.75V19.5H12Z" fill="#E4E4E8"/>
<path fill-rule="evenodd" clip-rule="evenodd" d="M15 21L2.25 21C1.83579 21 1.5 20.6642 1.5 20.25C1.5 19.8358 1.83579 19.5 2.25 19.5L15 19.5C15.4142 19.5 15.75 19.8358 15.75 20.25C15.75 20.6642 15.4142 21 15 21Z" fill="#5F6179"/>
<path fill-rule="evenodd" clip-rule="evenodd" d="M6.3 9.15001C6.59859 8.92607 7.01641 8.95576 7.28033 9.21968L8.78033 10.7197C8.92098 10.8603 9 11.0511 9 11.25V19.5C9 19.9142 8.66421 20.25 8.25 20.25C7.83579 20.25 7.5 19.9142 7.5 19.5V11.5607L6.67962 10.7403L4.5 12.375V19.5C4.5 19.9142 4.16421 20.25 3.75 20.25C3.33579 20.25 3 19.9142 3 19.5V12C3 11.7639 3.11115 11.5416 3.3 11.4L6.3 9.15001Z" fill="#5F6179"/>
<path fill-rule="evenodd" clip-rule="evenodd" d="M12.2699 3.17384C12.5679 2.92551 13.006 2.94539 13.2803 3.21967L16.2803 6.21967C16.421 6.36033 16.5 6.55109 16.5 6.75V12.75C16.5 13.1642 16.1642 13.5 15.75 13.5C15.3358 13.5 15 13.1642 15 12.75V7.06066L12.704 4.76464L9 7.85129V20.25C9 20.6642 8.66421 21 8.25 21C7.83579 21 7.5 20.6642 7.5 20.25V7.5C7.5 7.27742 7.59887 7.06633 7.76986 6.92384L12.2699 3.17384Z" fill="#5F6179"/>
<path d="M10.5 15C10.5 14.1716 11.1716 13.5 12 13.5C12.8284 13.5 13.5 14.1716 13.5 15V19.5H10.5V15Z" fill="#FF5F72"/>
<path fill-rule="evenodd" clip-rule="evenodd" d="M16.5 17.25C16.5 16.8358 16.8358 16.5 17.25 16.5L23.25 16.5C23.6642 16.5 24 16.8358 24 17.25C24 17.6642 23.6642 18 23.25 18L17.25 18C16.8358 18 16.5 17.6642 16.5 17.25Z" fill="#FF5F72"/>
<path fill-rule="evenodd" clip-rule="evenodd" d="M16.7197 16.7197C17.0126 16.4268 17.4874 16.4268 17.7803 16.7197L20.7803 19.7197C21.0732 20.0126 21.0732 20.4874 20.7803 20.7803C20.4874 21.0732 20.0126 21.0732 19.7197 20.7803L16.7197 17.7803C16.4268 17.4874 16.4268 17.0126 16.7197 16.7197Z" fill="#FF5F72"/>
<path fill-rule="evenodd" clip-rule="evenodd" d="M20.7803 13.7197C21.0732 14.0126 21.0732 14.4874 20.7803 14.7803L17.7803 17.7803C17.4874 18.0732 17.0126 18.0732 16.7197 17.7803C16.4268 17.4874 16.4268 17.0126 16.7197 16.7197L19.7197 13.7197C20.0126 13.4268 20.4874 13.4268 20.7803 13.7197Z" fill="#FF5F72"/>
</svg>