<svg width="24" height="24" viewBox="0 0 24 24" fill="none" xmlns="http://www.w3.org/2000/svg">
<path d="M12 15C9 15 7.5 16.5529 7.5 18C6.75001 18 5.25 18 4.5 18C4.5 17.25 6 15 10.5 15C10.9316 15 11.25 15 12 15Z" fill="#E4E4E8"/>
<path d="M12 12.75C9.74999 12 8.9999 10.5 8.99999 9C9.00008 7.5 9.74999 6 11.9999 5.25001C11.9999 5.25001 10.9138 5.25 10.5 5.25C8.99999 5.25 6.74986 6.23856 6.74986 9.00001C6.74986 11.7615 8.99999 12.75 10.5 12.75C10.9138 12.75 12 12.75 12 12.75Z" fill="#E4E4E8"/>
<path fill-rule="evenodd" clip-rule="evenodd" d="M10.5 12C12.1569 12 13.5 10.6569 13.5 9C13.5 7.34315 12.1569 6 10.5 6C8.84315 6 7.5 7.34315 7.5 9C7.5 10.6569 8.84315 12 10.5 12ZM10.5 13.5C12.9853 13.5 15 11.4853 15 9C15 6.51472 12.9853 4.5 10.5 4.5C8.01472 4.5 6 6.51472 6 9C6 11.4853 8.01472 13.5 10.5 13.5Z" fill="#5F6179"/>
<path fill-rule="evenodd" clip-rule="evenodd" d="M4.65053 18C4.92013 17.3167 5.55348 16.6042 6.51901 16.0341C7.57368 15.4114 8.96159 15 10.4999 15C11.6304 15 12.6815 15.2223 13.5797 15.589C13.9631 15.7456 14.4009 15.5616 14.5575 15.1781C14.7141 14.7947 14.5302 14.3569 14.1467 14.2003C13.0687 13.7601 11.825 13.5 10.4999 13.5C8.70097 13.5 7.04857 13.9796 5.75642 14.7424C4.47723 15.4977 3.48537 16.5732 3.13462 17.8047C3.00019 18.2767 3.14405 18.7261 3.42618 19.0351C3.69768 19.3325 4.09114 19.5 4.49993 19.5H12.7499C13.1641 19.5 13.4999 19.1642 13.4999 18.75C13.4999 18.3358 13.1641 18 12.7499 18H4.65053ZM4.50008 18H4.49993C4.49835 18 4.49848 17.9997 4.50008 18Z" fill="#5F6179"/>
<path fill-rule="evenodd" clip-rule="evenodd" d="M16.5 17.25C16.5 16.8358 16.8358 16.5 17.25 16.5L21.75 16.5C22.1642 16.5 22.5 16.8358 22.5 17.25C22.5 17.6642 22.1642 18 21.75 18L17.25 18C16.8358 18 16.5 17.6642 16.5 17.25Z" fill="#FF5F72"/>
<path fill-rule="evenodd" clip-rule="evenodd" d="M15.2197 16.7197C15.5126 16.4268 15.9874 16.4268 16.2803 16.7197L19.2803 19.7197C19.5732 20.0126 19.5732 20.4874 19.2803 20.7803C18.9874 21.0732 18.5126 21.0732 18.2197 20.7803L15.2197 17.7803C14.9268 17.4874 14.9268 17.0126 15.2197 16.7197Z" fill="#FF5F72"/>
<path fill-rule="evenodd" clip-rule="evenodd" d="M19.2803 13.7197C19.5732 14.0126 19.5732 14.4874 19.2803 14.7803L16.2803 17.7803C15.9874 18.0732 15.5126 18.0732 15.2197 17.7803C14.9268 17.4874 14.9268 17.0126 15.2197 16.7197L18.2197 13.7197C18.5126 13.4268 18.9874 13.4268 19.2803 13.7197Z" fill="#FF5F72"/>
</svg>