<svg width="24" height="24" viewBox="0 0 24 24" fill="none" xmlns="http://www.w3.org/2000/svg">
<path fill-rule="evenodd" clip-rule="evenodd" d="M14.1675 15.7043L17.3101 12.75L14.1675 9.79567L14.1527 9.78099C13.2824 8.91605 13.2824 7.50982 14.1527 6.64487C15.0179 5.78504 16.4168 5.78504 17.282 6.64487L21.8473 11.1819C22.7176 12.0469 22.7176 13.4531 21.8473 14.3181L17.282 18.8551C16.4168 19.715 15.0179 19.715 14.1527 18.8551C13.2824 17.9902 13.2824 16.584 14.1527 15.719L14.1675 15.7043ZM18.9187 12.2036C19.0725 12.3481 19.1512 12.5414 19.1549 12.7358C19.1551 12.7453 19.1551 12.7547 19.1549 12.7642C19.1512 12.9586 19.0725 13.1519 18.9187 13.2964L15.2101 16.7829C14.93 17.0614 14.93 17.5128 15.2101 17.7912C15.4787 18.0581 15.9073 18.0691 16.189 17.8243C16.199 17.8156 16.2087 17.8067 16.2183 17.7974C16.2204 17.7953 16.2225 17.7933 16.2246 17.7912L20.7899 13.2541C21.07 12.9757 21.07 12.5243 20.7899 12.2459L16.2246 7.70881C16.2225 7.70673 16.2204 7.70466 16.2183 7.7026C16.2087 7.69333 16.199 7.68438 16.189 7.67575C15.9073 7.43087 15.4787 7.44189 15.2101 7.70881C14.93 7.98723 14.93 8.43863 15.2101 8.71705L18.9187 12.2036Z" fill="#5F6179"/>
<path fill-rule="evenodd" clip-rule="evenodd" d="M8.72462 7.70881L13.2899 12.2459C13.57 12.5243 13.57 12.9757 13.2899 13.2541L8.72462 17.7912C8.44447 18.0696 7.99026 18.0696 7.71011 17.7912C7.42996 17.5128 7.42996 17.0614 7.71011 16.7829L11.4187 13.2964C11.7338 13.0003 11.7338 12.4997 11.4187 12.2036L7.71011 8.71705C7.42996 8.43863 7.42996 7.98723 7.71011 7.70881C7.99026 7.4304 8.44447 7.4304 8.72462 7.70881Z" fill="#E4E4E8"/>
<path fill-rule="evenodd" clip-rule="evenodd" d="M6.65274 15.719C6.66259 15.7092 6.67257 15.6996 6.68268 15.6901L9.81006 12.75L6.68268 9.80993C6.67257 9.80043 6.66259 9.79078 6.65274 9.78099C5.78242 8.91605 5.78242 7.50982 6.65274 6.64487C7.51792 5.78504 8.91681 5.78504 9.78198 6.64487L14.3473 11.1819C15.2176 12.0469 15.2176 13.4531 14.3473 14.3181L9.78198 18.8551C8.91681 19.715 7.51791 19.715 6.65274 18.8551C5.78242 17.9902 5.78242 16.584 6.65274 15.719ZM11.4187 12.2036C11.5725 12.3481 11.6512 12.5414 11.6549 12.7358C11.6551 12.7453 11.6551 12.7547 11.6549 12.7642C11.6512 12.9586 11.5725 13.1519 11.4187 13.2964L7.71011 16.7829C7.42996 17.0614 7.42996 17.5128 7.71011 17.7912C7.97869 18.0581 8.40725 18.0691 8.68905 17.8243C8.69898 17.8156 8.70873 17.8067 8.71829 17.7974C8.72041 17.7953 8.72252 17.7933 8.72462 17.7912L13.2899 13.2541C13.57 12.9757 13.57 12.5243 13.2899 12.2459L8.72462 7.70881C8.72252 7.70673 8.72041 7.70466 8.71829 7.7026C8.70873 7.69333 8.69898 7.68438 8.68905 7.67575C8.40725 7.43087 7.97869 7.44189 7.71011 7.70881C7.42996 7.98723 7.42996 8.43863 7.71011 8.71705L11.4187 12.2036Z" fill="#5F6179"/>
<path d="M6 12.9375C6 13.7659 5.32843 14.4375 4.5 14.4375C3.67157 14.4375 3 13.7659 3 12.9375C3 12.1091 3.67157 11.4375 4.5 11.4375C5.32843 11.4375 6 12.1091 6 12.9375Z" fill="#FF5F72"/>
</svg>