<svg width="24" height="24" viewBox="0 0 24 24" fill="none" xmlns="http://www.w3.org/2000/svg">
<path d="M6 19.5V11.25V6H9V19.5H6Z" fill="#E4E4E8"/>
<path d="M9 3.75C9 3.33579 9.33579 3 9.75 3H14.25C14.6642 3 15 3.33579 15 3.75V6.75C15 7.16421 14.6642 7.5 14.25 7.5H9.75C9.33579 7.5 9 7.16421 9 6.75V3.75Z" fill="#5F6179"/>
<path fill-rule="evenodd" clip-rule="evenodd" d="M18 6V19.5H6V6H18ZM4.5 6C4.5 5.17157 5.17157 4.5 6 4.5H18C18.8284 4.5 19.5 5.17157 19.5 6V19.5C19.5 20.3284 18.8284 21 18 21H6C5.17157 21 4.5 20.3284 4.5 19.5V6Z" fill="#5F6179"/>
<path fill-rule="evenodd" clip-rule="evenodd" d="M14.7803 10.7197C15.0732 11.0126 15.0732 11.4874 14.7803 11.7803L11.7803 14.7803C11.4874 15.0732 11.0126 15.0732 10.7197 14.7803L9.21967 13.2803C8.92678 12.9874 8.92678 12.5126 9.21967 12.2197C9.51256 11.9268 9.98744 11.9268 10.2803 12.2197L11.25 13.1893L13.7197 10.7197C14.0126 10.4268 14.4874 10.4268 14.7803 10.7197Z" fill="#FF5F72"/>
</svg>