<svg width="24" height="24" viewBox="0 0 24 24" fill="none" xmlns="http://www.w3.org/2000/svg">
<path d="M18 6L18 9L6 9L6 6L18 6Z" fill="#E4E4E8"/>
<path fill-rule="evenodd" clip-rule="evenodd" d="M18 6H6V18H18V6ZM6 4.5C5.17157 4.5 4.5 5.17157 4.5 6V18C4.5 18.8284 5.17157 19.5 6 19.5H18C18.8284 19.5 19.5 18.8284 19.5 18V6C19.5 5.17157 18.8284 4.5 18 4.5H6Z" fill="#5F6179"/>
<path fill-rule="evenodd" clip-rule="evenodd" d="M13.5 9L12 9L12 19.5L13.5 19.5L13.5 9Z" fill="#5F6179"/>
<path fill-rule="evenodd" clip-rule="evenodd" d="M19.5 10.5L19.5 9L4.5 9L4.5 10.5L19.5 10.5Z" fill="#5F6179"/>
<path fill-rule="evenodd" clip-rule="evenodd" d="M13.5 15L13.5 13.5L4.5 13.5L4.5 15L13.5 15Z" fill="#5F6179"/>
<path d="M16.5 15.75C16.5 16.1642 16.1642 16.5 15.75 16.5C15.3358 16.5 15 16.1642 15 15.75C15 15.3358 15.3358 15 15.75 15C16.1642 15 16.5 15.3358 16.5 15.75Z" fill="#FF5F72"/>
<path d="M16.5 12.75C16.5 13.1642 16.1642 13.5 15.75 13.5C15.3358 13.5 15 13.1642 15 12.75C15 12.3358 15.3358 12 15.75 12C16.1642 12 16.5 12.3358 16.5 12.75Z" fill="#FF5F72"/>
</svg>